<?xml version="1.0" encoding="utf-8"?>
<svg version="1.1" xmlns:xlink="http://www.w3.org/1999/xlink" width="12px" height="12px" viewBox="1362 344  12 12" xmlns="http://www.w3.org/2000/svg">
  <path d="M 1368 344  C 1371.36 344  1374 346.64  1374 350  C 1374 353.36  1371.36 356  1368 356  C 1364.64 356  1362 353.36  1362 350  C 1362 346.64  1364.64 344  1368 344  Z " fill-rule="nonzero" fill="#f0f0f0" stroke="none" />
  <path d="M 1368 344.5  C 1371.08 344.5  1373.5 346.92  1373.5 350  C 1373.5 353.08  1371.08 355.5  1368 355.5  C 1364.92 355.5  1362.5 353.08  1362.5 350  C 1362.5 346.92  1364.92 344.5  1368 344.5  Z " stroke-width="1" stroke="#797979" fill="none" />
  <path d="M 1368 353  C 1366.32 353  1365 351.68  1365 350  C 1365 348.32  1366.32 347  1368 347  C 1369.68 347  1371 348.32  1371 350  C 1371 351.68  1369.68 353  1368 353  " fill-rule="nonzero" fill="#797979" stroke="none" />
</svg>