<?xml version="1.0" encoding="utf-8"?>
<svg version="1.1" xmlns:xlink="http://www.w3.org/1999/xlink" width="12px" height="12px" viewBox="1362 374  12 12" xmlns="http://www.w3.org/2000/svg">
  <path d="M 1368 374  C 1371.36 374  1374 376.64  1374 380  C 1374 383.36  1371.36 386  1368 386  C 1364.64 386  1362 383.36  1362 380  C 1362 376.64  1364.64 374  1368 374  Z " fill-rule="nonzero" fill="#f0f0f0" stroke="none" />
  <path d="M 1368 374.5  C 1371.08 374.5  1373.5 376.92  1373.5 380  C 1373.5 383.08  1371.08 385.5  1368 385.5  C 1364.92 385.5  1362.5 383.08  1362.5 380  C 1362.5 376.92  1364.92 374.5  1368 374.5  Z " stroke-width="1" stroke="#797979" fill="none" />
  <path d="M 1368 383  C 1366.32 383  1365 381.68  1365 380  C 1365 378.32  1366.32 377  1368 377  C 1369.68 377  1371 378.32  1371 380  C 1371 381.68  1369.68 383  1368 383  " fill-rule="nonzero" fill="#797979" stroke="none" />
</svg>