<?xml version="1.0" encoding="utf-8"?>
<svg version="1.1" xmlns:xlink="http://www.w3.org/1999/xlink" width="12px" height="12px" viewBox="1362 404  12 12" xmlns="http://www.w3.org/2000/svg">
  <path d="M 1368 404  C 1371.36 404  1374 406.64  1374 410  C 1374 413.36  1371.36 416  1368 416  C 1364.64 416  1362 413.36  1362 410  C 1362 406.64  1364.64 404  1368 404  Z " fill-rule="nonzero" fill="#ffffff" stroke="none" />
  <path d="M 1368 404.5  C 1371.08 404.5  1373.5 406.92  1373.5 410  C 1373.5 413.08  1371.08 415.5  1368 415.5  C 1364.92 415.5  1362.5 413.08  1362.5 410  C 1362.5 406.92  1364.92 404.5  1368 404.5  Z " stroke-width="1" stroke="#797979" fill="none" />
  <path d="M 1368 413  C 1366.32 413  1365 411.68  1365 410  C 1365 408.32  1366.32 407  1368 407  C 1369.68 407  1371 408.32  1371 410  C 1371 411.68  1369.68 413  1368 413  " fill-rule="nonzero" fill="#797979" stroke="none" />
</svg>