<?xml version="1.0" encoding="utf-8"?>
<svg version="1.1" xmlns:xlink="http://www.w3.org/1999/xlink" width="707px" height="930px" xmlns="http://www.w3.org/2000/svg">
  <g transform="matrix(1 0 0 1 -1201 0 )">
    <path d="M 1202 10  A 9 9 0 0 1 1211 1 L 1898 1  A 9 9 0 0 1 1907 10 L 1907 920  A 9 9 0 0 1 1898 929 L 1211 929  A 9 9 0 0 1 1202 920 L 1202 10  Z " fill-rule="nonzero" fill="#ffffff" stroke="none" />
    <path d="M 1201.5 10  A 9.5 9.5 0 0 1 1211 0.5 L 1898 0.5  A 9.5 9.5 0 0 1 1907.5 10 L 1907.5 920  A 9.5 9.5 0 0 1 1898 929.5 L 1211 929.5  A 9.5 9.5 0 0 1 1201.5 920 L 1201.5 10  Z " stroke-width="1" stroke="#797979" fill="none" stroke-opacity="0.525490196078431" />
  </g>
</svg>